<svg width="254" height="247" viewBox="0 0 254 247" fill="none" xmlns="http://www.w3.org/2000/svg">
<g filter="url(#filter0_d_14517_4853)">
<path opacity="0.45" d="M170.476 11.4889C165.205 46.5699 136.11 74.3192 99.3294 79.3471C92.9854 80.2169 87.293 75.5427 87.293 69.4346V10.0264C87.293 4.49188 91.9933 0.00878906 97.7961 0.00878906H160.073C166.487 0.00878906 171.388 5.4382 170.476 11.4889Z" fill="white" fill-opacity="0.15"/>
<path opacity="0.6" fill-rule="evenodd" clip-rule="evenodd" d="M212.358 158.896C235.359 158.896 254 141.116 254 119.179C254 97.2414 235.359 79.4619 212.358 79.4619C189.358 79.4619 170.717 97.2414 170.717 119.179C170.707 141.107 189.358 158.896 212.358 158.896ZM212.358 149.442C229.887 149.442 244.088 135.897 244.088 119.179C244.088 102.46 229.887 88.9156 212.358 88.9156C194.83 88.9156 180.628 102.46 180.628 119.179C180.628 135.888 194.83 149.442 212.358 149.442Z" fill="white" fill-opacity="0.15"/>
<path opacity="0.6" fill-rule="evenodd" clip-rule="evenodd" d="M212.358 139.032C223.853 139.032 233.184 130.142 233.184 119.169C233.184 108.195 223.863 99.3057 212.358 99.3057C200.853 99.3057 191.532 108.195 191.532 119.169C191.532 130.142 200.853 139.032 212.358 139.032ZM212.358 129.578C218.381 129.578 223.262 124.923 223.262 119.178C223.262 113.434 218.381 108.778 212.358 108.778C206.335 108.778 201.454 113.434 201.454 119.178C201.454 124.923 206.335 129.578 212.358 129.578Z" fill="white" fill-opacity="0.15"/>
<path opacity="0.45" fill-rule="evenodd" clip-rule="evenodd" d="M170.817 170.376C176.088 205.457 205.182 233.206 241.963 238.234C248.307 239.104 254 234.43 254 228.322V168.923C254 163.388 249.3 158.905 243.497 158.905H181.22C174.806 158.896 169.905 164.325 170.817 170.376ZM196.974 191.816C196.974 204.73 207.948 215.197 221.488 215.197C235.028 215.197 246.002 204.73 246.002 191.816C246.002 178.902 235.028 168.435 221.488 168.435C207.948 168.435 196.974 178.902 196.974 191.816Z" fill="white" fill-opacity="0.15"/>
<path opacity="0.3" fill-rule="evenodd" clip-rule="evenodd" d="M253.89 67.9724C248.618 32.8914 219.524 5.14215 182.743 0.1142C176.399 -0.755654 170.707 3.91861 170.707 10.0267V69.4253C170.707 74.9599 175.407 79.443 181.21 79.443H243.487C249.911 79.4525 254.802 74.0231 253.89 67.9724ZM227.732 46.5319C227.732 33.6179 216.758 23.151 203.218 23.151C189.678 23.151 178.704 33.6179 178.704 46.5319C178.704 59.4459 189.678 69.9128 203.218 69.9128C216.758 69.9128 227.732 59.4459 227.732 46.5319Z" fill="white" fill-opacity="0.15"/>
<path opacity="0.6" d="M170.476 147.416C165.205 112.335 136.11 84.5855 99.3294 79.5576C92.9854 78.6877 87.293 83.362 87.293 89.4796C87.293 94.4789 91.1614 98.6848 96.3428 99.4017C110.123 101.294 122.47 107.441 131.861 116.397C141.252 125.354 147.696 137.13 149.68 150.274C150.422 155.225 154.842 158.905 160.083 158.905C166.487 158.896 171.388 153.466 170.476 147.416Z" fill="white" fill-opacity="0.15"/>
<path opacity="0.6" d="M95.8616 123.557C109.983 126.654 121.097 137.255 124.344 150.724C125.357 154.91 121.969 158.896 117.469 158.896H94.3383C90.4497 158.896 87.3028 155.895 87.3028 152.186V130.124C87.2927 125.823 91.472 122.592 95.8616 123.557Z" fill="white" fill-opacity="0.15"/>
<path opacity="0.6" d="M57.5142 56.6857C63.1292 54.4674 65.7956 48.3276 63.4697 42.9722C61.1439 37.6167 54.7066 35.0736 49.0916 37.2919C43.4766 39.5103 40.8103 45.65 43.1361 51.0055C45.462 56.3609 51.8993 58.904 57.5142 56.6857Z" fill="white" fill-opacity="0.15"/>
<path opacity="0.6" d="M75.2563 0.104429C38.4752 5.13238 9.38111 32.8816 4.10949 67.9626C3.19749 74.0133 8.09834 79.4427 14.5024 79.4427H76.7795C82.5823 79.4427 87.2828 74.9596 87.2828 69.4251V10.0265C87.2928 3.90883 81.6003 -0.765424 75.2563 0.104429ZM74.284 47.0001C74.284 58.0692 64.8733 67.0354 53.2778 67.0354C41.6823 67.0354 32.2716 58.0596 32.2716 47.0001C32.2716 35.9405 41.6823 26.9647 53.2778 26.9647C64.8733 26.9647 74.284 35.9309 74.284 47.0001Z" fill="white" fill-opacity="0.15"/>
</g>
<defs>
<filter id="filter0_d_14517_4853" x="0" y="0" width="258" height="246.339" filterUnits="userSpaceOnUse" color-interpolation-filters="sRGB">
<feFlood flood-opacity="0" result="BackgroundImageFix"/>
<feColorMatrix in="SourceAlpha" type="matrix" values="0 0 0 0 0 0 0 0 0 0 0 0 0 0 0 0 0 0 127 0" result="hardAlpha"/>
<feOffset dy="4"/>
<feGaussianBlur stdDeviation="2"/>
<feComposite in2="hardAlpha" operator="out"/>
<feColorMatrix type="matrix" values="0 0 0 0 0 0 0 0 0 0 0 0 0 0 0 0 0 0 0.25 0"/>
<feBlend mode="normal" in2="BackgroundImageFix" result="effect1_dropShadow_14517_4853"/>
<feBlend mode="normal" in="SourceGraphic" in2="effect1_dropShadow_14517_4853" result="shape"/>
</filter>
</defs>
</svg>
