<svg width="120" height="62" viewBox="0 0 120 62" fill="none" xmlns="http://www.w3.org/2000/svg">
<path d="M45.1814 1.86399C45.1814 0.834539 44.342 0 43.3064 0C42.2709 0 41.4314 0.834539 41.4314 1.86399C41.4314 2.89345 42.2709 3.72799 43.3064 3.72799C44.342 3.72799 45.1814 2.89345 45.1814 1.86399Z" fill="url(#paint0_linear_6322_35804)"/>
<path d="M43.3064 6.49392C44.342 6.49392 45.1814 7.32845 45.1814 8.35791V26.6972C45.1814 27.7267 44.342 28.5612 43.3064 28.5612C42.2709 28.5612 41.4314 27.7267 41.4314 26.6972V8.35791C41.4314 7.32845 42.2709 6.49392 43.3064 6.49392Z" fill="url(#paint1_linear_6322_35804)"/>
<path d="M48.871 8.35791C48.871 7.32845 49.7105 6.49392 50.746 6.49392H64.5363C65.2444 6.49392 65.8921 6.89047 66.2107 7.51909C66.5294 8.14772 66.4646 8.90117 66.0433 9.46695L54.4668 25.0136H64.8992C65.9347 25.0136 66.7742 25.8481 66.7742 26.8776C66.7742 27.9071 65.9347 28.7416 64.8992 28.7416H50.746C50.0379 28.7416 49.3902 28.345 49.0716 27.7164C48.7529 27.0878 48.8177 26.3343 49.239 25.7686L60.8155 10.2219H50.746C49.7105 10.2219 48.871 9.38737 48.871 8.35791Z" fill="url(#paint2_linear_6322_35804)"/>
<path fill-rule="evenodd" clip-rule="evenodd" d="M88.7903 26.8776C88.7903 27.9071 89.6298 28.7416 90.6653 28.7416C91.7009 28.7416 92.5403 27.9071 92.5403 26.8776V17.738C92.5403 11.6609 87.5848 6.73443 81.4718 6.73443C75.3588 6.73443 70.4032 11.6609 70.4032 17.738C70.4032 23.8151 75.3588 28.7416 81.4718 28.7416C84.2775 28.7416 86.8395 27.7038 88.7903 25.9932V26.8776ZM74.1532 17.738C74.1532 13.7198 77.4299 10.4624 81.4718 10.4624C85.5137 10.4624 88.7903 13.7198 88.7903 17.738C88.7903 21.7562 85.5137 25.0136 81.4718 25.0136C77.4299 25.0136 74.1532 21.7562 74.1532 17.738Z" fill="url(#paint3_linear_6322_35804)"/>
<path d="M0 16.355C0 10.6432 4.65768 6.01289 10.4032 6.01289C13.8944 6.01289 16.984 7.72253 18.871 10.3456C20.7579 7.72253 23.8475 6.01289 27.3387 6.01289C33.0843 6.01289 37.7419 10.6432 37.7419 16.355V26.9377C37.7419 28.0004 36.8754 28.8619 35.8064 28.8619C34.7375 28.8619 33.871 28.0004 33.871 26.9377V16.355C33.871 12.7686 30.9464 9.86113 27.3387 9.86113C23.731 9.86113 20.8065 12.7686 20.8065 16.355V26.9377C20.8065 28.0004 19.9399 28.8619 18.871 28.8619C17.802 28.8619 16.9355 28.0004 16.9355 26.9377V16.355C16.9355 12.7686 14.0109 9.86113 10.4032 9.86113C6.79556 9.86113 3.87097 12.7686 3.87097 16.355V26.9377C3.87097 28.0004 3.00442 28.8619 1.93548 28.8619C0.866546 28.8619 0 28.0004 0 26.9377V16.355Z" fill="url(#paint4_linear_6322_35804)"/>
<path d="M100.161 17.7981C100.161 13.4147 103.736 9.86113 108.145 9.86113C112.555 9.86113 116.129 13.4147 116.129 17.7981V26.9377C116.129 28.0004 116.996 28.8619 118.065 28.8619C119.133 28.8619 120 28.0004 120 26.9377V17.7981C120 11.2893 114.692 6.01289 108.145 6.01289C101.598 6.01289 96.2903 11.2893 96.2903 17.7981V26.9377C96.2903 28.0004 97.1569 28.8619 98.2258 28.8619C99.2947 28.8619 100.161 28.0004 100.161 26.9377V17.7981Z" fill="url(#paint5_linear_6322_35804)"/>
<path d="M50.6855 32.7101C51.721 32.7101 52.5605 33.5446 52.5605 34.5741C52.5605 35.6035 51.721 36.4381 50.6855 36.4381C49.6499 36.4381 48.8105 35.6035 48.8105 34.5741C48.8105 33.5446 49.6499 32.7101 50.6855 32.7101Z" fill="url(#paint6_linear_6322_35804)"/>
<path fill-rule="evenodd" clip-rule="evenodd" d="M87.5202 33.4316C83.3446 33.4316 79.9597 36.7967 79.9597 40.9478C79.9597 42.3292 80.3346 43.6236 80.9887 44.7359H75.4528C76.0125 43.7181 76.3306 42.5502 76.3306 41.3085C76.3306 38.3549 74.5007 35.5244 71.6124 34.6542C71.5973 34.6497 71.5823 34.6454 71.5672 34.6412L68.0591 33.6791C67.0609 33.4054 66.0284 33.9879 65.753 34.9803C65.4776 35.9727 66.0636 36.9991 67.0619 37.2729L70.5438 38.2278C71.639 38.5684 72.5806 39.7841 72.5806 41.3085C72.5806 43.2014 71.0371 44.7359 69.1331 44.7359H52.621V41.068C52.621 40.0385 51.7815 39.204 50.746 39.204C49.7104 39.204 48.871 40.0385 48.871 41.068V59.2269C48.871 60.2564 49.7104 61.0909 50.746 61.0909C51.7815 61.0909 52.621 60.2564 52.621 59.2269V48.4639H112.44C116.615 48.4639 120 45.0988 120 40.9478C120 36.7967 116.615 33.4316 112.44 33.4316H87.5202ZM112.44 44.7359H87.5202C85.4157 44.7359 83.7097 43.0399 83.7097 40.9478C83.7097 38.8556 85.4157 37.1596 87.5202 37.1596H112.44C114.544 37.1596 116.25 38.8556 116.25 40.9478C116.25 43.0399 114.544 44.7359 112.44 44.7359Z" fill="url(#paint7_linear_6322_35804)"/>
<path d="M45.1814 34.6342V59.2269C45.1814 60.2564 44.342 61.0909 43.3064 61.0909C42.2709 61.0909 41.4314 60.2564 41.4314 59.2269V34.6342C41.4314 33.6048 42.2709 32.7702 43.3064 32.7702C44.342 32.7702 45.1814 33.6048 45.1814 34.6342Z" fill="url(#paint8_linear_6322_35804)"/>
<path d="M61.2702 51.2298C62.3057 51.2298 63.1452 52.0643 63.1452 53.0938C63.1452 54.1232 62.3057 54.9578 61.2702 54.9578C60.2346 54.9578 59.3952 54.1232 59.3952 53.0938C59.3952 52.0643 60.2346 51.2298 61.2702 51.2298Z" fill="url(#paint9_linear_6322_35804)"/>
<path d="M68.7097 53.0938C68.7097 52.0643 67.8702 51.2298 66.8347 51.2298C65.7991 51.2298 64.9597 52.0643 64.9597 53.0938C64.9597 54.1232 65.7991 54.9578 66.8347 54.9578C67.8702 54.9578 68.7097 54.1232 68.7097 53.0938Z" fill="url(#paint10_linear_6322_35804)"/>
<path d="M9.26878 37.2128C10.267 36.939 10.853 35.9126 10.5776 34.9202C10.3023 33.9278 9.26979 33.3453 8.27154 33.619L4.76348 34.5811C4.74836 34.5852 4.7333 34.5896 4.7183 34.5941C1.82991 35.4643 0 38.2948 0 41.2484C0 45.1994 3.22112 48.4024 7.19509 48.4037H7.19758L30.5395 48.4638L30.5444 48.4639C34.5195 48.4639 37.7419 45.2603 37.7419 41.3085C37.7419 38.3549 35.912 35.5244 33.0236 34.6542C33.0086 34.6497 32.9936 34.6454 32.9785 34.6412L29.4704 33.6791C28.4721 33.4054 27.4397 33.9879 27.1643 34.9803C26.8889 35.9727 27.4749 36.9991 28.4732 37.2729L31.9551 38.2278C33.0502 38.5684 33.9919 39.7841 33.9919 41.3085C33.9919 43.2007 32.4495 44.7347 30.5464 44.7359H30.5444L7.20241 44.6758L7.19758 44.6757C5.29353 44.6757 3.75 43.1413 3.75 41.2484C3.75 39.7239 4.69169 38.5083 5.78683 38.1677L9.26878 37.2128Z" fill="url(#paint11_linear_6322_35804)"/>
<path d="M18.871 32.7101C19.9065 32.7101 20.746 33.5446 20.746 34.5741C20.746 35.6035 19.9065 36.4381 18.871 36.4381C17.8354 36.4381 16.996 35.6035 16.996 34.5741C16.996 33.5446 17.8354 32.7101 18.871 32.7101Z" fill="url(#paint12_linear_6322_35804)"/>
<defs>
<linearGradient id="paint0_linear_6322_35804" x1="120" y1="0" x2="70.6012" y2="97.0334" gradientUnits="userSpaceOnUse">
<stop stop-color="#80B2FF"/>
<stop offset="0.51551" stop-color="#7C27D9"/>
<stop offset="1" stop-color="#FF68F0"/>
</linearGradient>
<linearGradient id="paint1_linear_6322_35804" x1="120" y1="0" x2="70.6012" y2="97.0334" gradientUnits="userSpaceOnUse">
<stop stop-color="#80B2FF"/>
<stop offset="0.51551" stop-color="#7C27D9"/>
<stop offset="1" stop-color="#FF68F0"/>
</linearGradient>
<linearGradient id="paint2_linear_6322_35804" x1="120" y1="0" x2="70.6012" y2="97.0334" gradientUnits="userSpaceOnUse">
<stop stop-color="#80B2FF"/>
<stop offset="0.51551" stop-color="#7C27D9"/>
<stop offset="1" stop-color="#FF68F0"/>
</linearGradient>
<linearGradient id="paint3_linear_6322_35804" x1="120" y1="0" x2="70.6012" y2="97.0334" gradientUnits="userSpaceOnUse">
<stop stop-color="#80B2FF"/>
<stop offset="0.51551" stop-color="#7C27D9"/>
<stop offset="1" stop-color="#FF68F0"/>
</linearGradient>
<linearGradient id="paint4_linear_6322_35804" x1="120" y1="0" x2="70.6012" y2="97.0334" gradientUnits="userSpaceOnUse">
<stop stop-color="#80B2FF"/>
<stop offset="0.51551" stop-color="#7C27D9"/>
<stop offset="1" stop-color="#FF68F0"/>
</linearGradient>
<linearGradient id="paint5_linear_6322_35804" x1="120" y1="0" x2="70.6012" y2="97.0334" gradientUnits="userSpaceOnUse">
<stop stop-color="#80B2FF"/>
<stop offset="0.51551" stop-color="#7C27D9"/>
<stop offset="1" stop-color="#FF68F0"/>
</linearGradient>
<linearGradient id="paint6_linear_6322_35804" x1="120" y1="0" x2="70.6012" y2="97.0334" gradientUnits="userSpaceOnUse">
<stop stop-color="#80B2FF"/>
<stop offset="0.51551" stop-color="#7C27D9"/>
<stop offset="1" stop-color="#FF68F0"/>
</linearGradient>
<linearGradient id="paint7_linear_6322_35804" x1="120" y1="0" x2="70.6012" y2="97.0334" gradientUnits="userSpaceOnUse">
<stop stop-color="#80B2FF"/>
<stop offset="0.51551" stop-color="#7C27D9"/>
<stop offset="1" stop-color="#FF68F0"/>
</linearGradient>
<linearGradient id="paint8_linear_6322_35804" x1="120" y1="0" x2="70.6012" y2="97.0334" gradientUnits="userSpaceOnUse">
<stop stop-color="#80B2FF"/>
<stop offset="0.51551" stop-color="#7C27D9"/>
<stop offset="1" stop-color="#FF68F0"/>
</linearGradient>
<linearGradient id="paint9_linear_6322_35804" x1="120" y1="0" x2="70.6012" y2="97.0334" gradientUnits="userSpaceOnUse">
<stop stop-color="#80B2FF"/>
<stop offset="0.51551" stop-color="#7C27D9"/>
<stop offset="1" stop-color="#FF68F0"/>
</linearGradient>
<linearGradient id="paint10_linear_6322_35804" x1="120" y1="0" x2="70.6012" y2="97.0334" gradientUnits="userSpaceOnUse">
<stop stop-color="#80B2FF"/>
<stop offset="0.51551" stop-color="#7C27D9"/>
<stop offset="1" stop-color="#FF68F0"/>
</linearGradient>
<linearGradient id="paint11_linear_6322_35804" x1="120" y1="0" x2="70.6012" y2="97.0334" gradientUnits="userSpaceOnUse">
<stop stop-color="#80B2FF"/>
<stop offset="0.51551" stop-color="#7C27D9"/>
<stop offset="1" stop-color="#FF68F0"/>
</linearGradient>
<linearGradient id="paint12_linear_6322_35804" x1="120" y1="0" x2="70.6012" y2="97.0334" gradientUnits="userSpaceOnUse">
<stop stop-color="#80B2FF"/>
<stop offset="0.51551" stop-color="#7C27D9"/>
<stop offset="1" stop-color="#FF68F0"/>
</linearGradient>
</defs>
</svg>
