<svg width="150" height="76" viewBox="0 0 150 76" fill="none" xmlns="http://www.w3.org/2000/svg">
<path d="M56.4768 2.30585C56.4768 1.03237 55.4275 0 54.1331 0C52.8386 0 51.7893 1.03237 51.7893 2.30585C51.7893 3.57934 52.8386 4.61171 54.1331 4.61171C55.4275 4.61171 56.4768 3.57934 56.4768 2.30585Z" fill="white"/>
<path d="M54.1331 8.0333C55.4275 8.0333 56.4768 9.06566 56.4768 10.3392V33.0258C56.4768 34.2993 55.4275 35.3316 54.1331 35.3316C52.8386 35.3316 51.7893 34.2993 51.7893 33.0258V10.3392C51.7893 9.06566 52.8386 8.0333 54.1331 8.0333Z" fill="white"/>
<path d="M61.0887 10.3392C61.0887 9.06566 62.1381 8.0333 63.4325 8.0333H80.6704C81.5555 8.0333 82.3651 8.52386 82.7634 9.3015C83.1617 10.0791 83.0808 11.0112 82.5541 11.7111L68.0835 30.9431H81.124C82.4184 30.9431 83.4677 31.9754 83.4677 33.2489C83.4677 34.5224 82.4184 35.5548 81.124 35.5548H63.4325C62.5474 35.5548 61.7378 35.0642 61.3395 34.2866C60.9411 33.509 61.0221 32.5769 61.5487 31.877L76.0193 12.645H63.4325C62.1381 12.645 61.0887 11.6126 61.0887 10.3392Z" fill="white"/>
<path fill-rule="evenodd" clip-rule="evenodd" d="M110.988 33.2489C110.988 34.5224 112.037 35.5548 113.332 35.5548C114.626 35.5548 115.675 34.5224 115.675 33.2489V21.9428C115.675 14.4251 109.481 8.33083 101.84 8.33083C94.1985 8.33083 88.004 14.4251 88.004 21.9428C88.004 29.4605 94.1985 35.5548 101.84 35.5548C105.347 35.5548 108.549 34.2709 110.988 32.1548V33.2489ZM92.6915 21.9428C92.6915 16.9721 96.7873 12.9425 101.84 12.9425C106.892 12.9425 110.988 16.9721 110.988 21.9428C110.988 26.9135 106.892 30.9431 101.84 30.9431C96.7873 30.9431 92.6915 26.9135 92.6915 21.9428Z" fill="white"/>
<path d="M0 20.232C0 13.1662 5.8221 7.43824 13.004 7.43824C17.3681 7.43824 21.23 9.55315 23.5887 12.798C25.9474 9.55315 29.8094 7.43824 34.1734 7.43824C41.3553 7.43824 47.1774 13.1662 47.1774 20.232V33.3233C47.1774 34.6379 46.0942 35.7036 44.7581 35.7036C43.4219 35.7036 42.3387 34.6379 42.3387 33.3233V20.232C42.3387 15.7953 38.683 12.1987 34.1734 12.1987C29.6638 12.1987 26.0081 15.7953 26.0081 20.232V33.3233C26.0081 34.6379 24.9249 35.7036 23.5887 35.7036C22.2525 35.7036 21.1694 34.6379 21.1694 33.3233V20.232C21.1694 15.7953 17.5136 12.1987 13.004 12.1987C8.49445 12.1987 4.83871 15.7953 4.83871 20.232V33.3233C4.83871 34.6379 3.75553 35.7036 2.41935 35.7036C1.08318 35.7036 0 34.6379 0 33.3233V20.232Z" fill="white"/>
<path d="M125.202 22.0172C125.202 16.5946 129.67 12.1987 135.181 12.1987C140.693 12.1987 145.161 16.5946 145.161 22.0172V33.3233C145.161 34.6379 146.244 35.7036 147.581 35.7036C148.917 35.7036 150 34.6379 150 33.3233V22.0172C150 13.9655 143.366 7.43824 135.181 7.43824C126.997 7.43824 120.363 13.9655 120.363 22.0172V33.3233C120.363 34.6379 121.446 35.7036 122.782 35.7036C124.118 35.7036 125.202 34.6379 125.202 33.3233V22.0172Z" fill="white"/>
<path d="M63.3569 40.464C64.6513 40.464 65.7006 41.4964 65.7006 42.7699C65.7006 44.0434 64.6513 45.0757 63.3569 45.0757C62.0624 45.0757 61.0131 44.0434 61.0131 42.7699C61.0131 41.4964 62.0624 40.464 63.3569 40.464Z" fill="white"/>
<path fill-rule="evenodd" clip-rule="evenodd" d="M109.4 41.3566C104.181 41.3566 99.9496 45.5194 99.9496 50.6544C99.9496 52.3633 100.418 53.9646 101.236 55.3405H94.316C95.0156 54.0814 95.4133 52.6368 95.4133 51.1007C95.4133 47.447 93.1259 43.9455 89.5154 42.869C89.4967 42.8634 89.4779 42.858 89.459 42.8529L85.0739 41.6628C83.8261 41.3241 82.5355 42.0448 82.1912 43.2724C81.847 44.5001 82.5795 45.7698 83.8273 46.1084L88.1798 47.2897C89.5487 47.7111 90.7258 49.2149 90.7258 51.1007C90.7258 53.4423 88.7964 55.3405 86.4163 55.3405H65.7762V50.8032C65.7762 49.5297 64.7269 48.4973 63.4325 48.4973C62.138 48.4973 61.0887 49.5297 61.0887 50.8032V73.2667C61.0887 74.5402 62.138 75.5725 63.4325 75.5725C64.7269 75.5725 65.7762 74.5402 65.7762 73.2667V59.9522H140.549C145.769 59.9522 150 55.7894 150 50.6544C150 45.5194 145.769 41.3566 140.549 41.3566H109.4ZM140.549 55.3405H109.4C106.77 55.3405 104.637 53.2425 104.637 50.6544C104.637 48.0664 106.77 45.9683 109.4 45.9683H140.549C143.18 45.9683 145.312 48.0664 145.312 50.6544C145.312 53.2425 143.18 55.3405 140.549 55.3405Z" fill="white"/>
<path d="M56.4768 42.8443V73.2667C56.4768 74.5402 55.4275 75.5725 54.1331 75.5725C52.8386 75.5725 51.7893 74.5402 51.7893 73.2667V42.8443C51.7893 41.5708 52.8386 40.5384 54.1331 40.5384C55.4275 40.5384 56.4768 41.5708 56.4768 42.8443Z" fill="white"/>
<path d="M76.5877 63.3738C77.8821 63.3738 78.9315 64.4062 78.9315 65.6797C78.9315 66.9531 77.8821 67.9855 76.5877 67.9855C75.2933 67.9855 74.244 66.9531 74.244 65.6797C74.244 64.4062 75.2933 63.3738 76.5877 63.3738Z" fill="white"/>
<path d="M85.8871 65.6797C85.8871 64.4062 84.8378 63.3738 83.5434 63.3738C82.2489 63.3738 81.1996 64.4062 81.1996 65.6797C81.1996 66.9531 82.2489 67.9855 83.5434 67.9855C84.8378 67.9855 85.8871 66.9531 85.8871 65.6797Z" fill="white"/>
<path d="M11.586 46.0341C12.8338 45.6954 13.5663 44.4257 13.2221 43.198C12.8778 41.9704 11.5872 41.2497 10.3394 41.5884L5.95435 42.7785C5.93546 42.7837 5.91663 42.789 5.89787 42.7946C2.28739 43.8711 0 47.3726 0 51.0263C0 55.9139 4.0264 59.8762 8.99387 59.8778H8.99698L38.1744 59.9522L38.1804 59.9522C43.1493 59.9522 47.1774 55.9893 47.1774 51.1007C47.1774 47.447 44.89 43.9455 41.2796 42.869C41.2608 42.8634 41.242 42.858 41.2231 42.8529L36.838 41.6628C35.5902 41.3241 34.2996 42.0448 33.9554 43.2724C33.6111 44.5001 34.3436 45.7698 35.5914 46.1084L39.9439 47.2897C41.3128 47.7111 42.4899 49.2149 42.4899 51.1007C42.4899 53.4414 40.5619 55.3391 38.1831 55.3405H38.1804L9.00302 55.2661L8.99698 55.2661C6.61692 55.2661 4.6875 53.3679 4.6875 51.0263C4.6875 49.1405 5.86461 47.6367 7.23354 47.2153L11.586 46.0341Z" fill="white"/>
<path d="M23.5887 40.464C24.8831 40.464 25.9325 41.4964 25.9325 42.7699C25.9325 44.0434 24.8831 45.0757 23.5887 45.0757C22.2943 45.0757 21.245 44.0434 21.245 42.7699C21.245 41.4964 22.2943 40.464 23.5887 40.464Z" fill="white"/>
</svg>
