<svg width="390" height="325" viewBox="0 0 390 325" fill="none" xmlns="http://www.w3.org/2000/svg">
<rect x="195" width="65" height="65" fill="#E2C6FF"/>
<path d="M130 65C165.898 65 195 35.8985 195 0L178.75 -7.1031e-07C178.75 26.9239 156.924 48.75 130 48.75L130 65Z" fill="#FFCAF3"/>
<path d="M159.405 0C159.405 16.2398 146.24 29.4048 130 29.4048L130 -1.28532e-06L159.405 0Z" fill="#E3B1F0"/>
<path d="M65 2.84124e-06C65 35.8985 35.8985 65 0 65L2.84124e-06 0L65 2.84124e-06Z" fill="#E2C6FF"/>
<path d="M65 -2.84124e-06C100.899 -2.84124e-06 130 29.1015 130 65L65 65L65 -2.84124e-06Z" fill="#FFCAF3"/>
<path fill-rule="evenodd" clip-rule="evenodd" d="M82.7977 38.6904C82.7977 43.3914 86.6086 47.2023 91.3096 47.2023C96.0106 47.2023 99.8215 43.3914 99.8215 38.6904C99.8215 33.9894 96.0106 30.1785 91.3096 30.1785C86.6086 30.1785 82.7977 33.9894 82.7977 38.6904ZM75.0596 38.6904C75.0596 47.6651 82.3349 54.9404 91.3096 54.9404C100.284 54.9404 107.56 47.6651 107.56 38.6904C107.56 29.7158 100.284 22.4404 91.3096 22.4404C82.3349 22.4404 75.0596 29.7158 75.0596 38.6904Z" fill="#E3B1F0"/>
<path fill-rule="evenodd" clip-rule="evenodd" d="M292.5 57.2619C306.176 57.2619 317.262 46.1756 317.262 32.5C317.262 18.8244 306.176 7.7381 292.5 7.7381C278.824 7.7381 267.738 18.8244 267.738 32.5C267.738 46.1756 278.824 57.2619 292.5 57.2619ZM292.5 65C310.449 65 325 50.4493 325 32.5C325 14.5507 310.449 0 292.5 0C274.551 0 260 14.5507 260 32.5C260 50.4493 274.551 65 292.5 65Z" fill="#E3B1F0"/>
<path fill-rule="evenodd" clip-rule="evenodd" d="M292.5 41.0119C297.201 41.0119 301.012 37.201 301.012 32.5C301.012 27.799 297.201 23.9881 292.5 23.9881C287.799 23.9881 283.988 27.799 283.988 32.5C283.988 37.201 287.799 41.0119 292.5 41.0119ZM292.5 48.75C301.475 48.75 308.75 41.4746 308.75 32.5C308.75 23.5254 301.475 16.25 292.5 16.25C283.525 16.25 276.25 23.5254 276.25 32.5C276.25 41.4746 283.525 48.75 292.5 48.75Z" fill="#FFCAF3"/>
<path fill-rule="evenodd" clip-rule="evenodd" d="M325 0C325 35.8985 354.102 65 390 65V0H325ZM364.851 45.6548C375.322 45.6548 383.81 37.1668 383.81 26.6964C383.81 16.226 375.322 7.7381 364.851 7.7381C354.381 7.7381 345.893 16.226 345.893 26.6964C345.893 37.1668 354.381 45.6548 364.851 45.6548Z" fill="#E3B1F0"/>
<rect x="260" y="65" width="65" height="65" fill="#E2C6FF"/>
<path d="M-1.94691e-06 65C-5.08526e-06 100.898 29.1015 130 65 130L65 113.75C38.0761 113.75 16.25 91.9239 16.25 65L-1.94691e-06 65Z" fill="#FFCAF3"/>
<path d="M65 94.4048C48.7602 94.4048 35.5952 81.2398 35.5952 65L65 65L65 94.4048Z" fill="#E3B1F0"/>
<path d="M325 65C360.899 65 390 94.1015 390 130L325 130L325 65Z" fill="#E3B1F0"/>
<path d="M130 65C165.899 65 195 94.1015 195 130L130 130L130 65Z" fill="#FFCAF3"/>
<path fill-rule="evenodd" clip-rule="evenodd" d="M147.798 103.69C147.798 108.391 151.609 112.202 156.31 112.202C161.011 112.202 164.821 108.391 164.821 103.69C164.821 98.9894 161.011 95.1785 156.31 95.1785C151.609 95.1785 147.798 98.9894 147.798 103.69ZM140.06 103.69C140.06 112.665 147.335 119.94 156.31 119.94C165.284 119.94 172.56 112.665 172.56 103.69C172.56 94.7158 165.284 87.4404 156.31 87.4404C147.335 87.4404 140.06 94.7158 140.06 103.69Z" fill="#E3B1F0"/>
<path fill-rule="evenodd" clip-rule="evenodd" d="M97.5 122.262C111.176 122.262 122.262 111.176 122.262 97.5C122.262 83.8244 111.176 72.7381 97.5 72.7381C83.8244 72.7381 72.7381 83.8244 72.7381 97.5C72.7381 111.176 83.8244 122.262 97.5 122.262ZM97.5 130C115.449 130 130 115.449 130 97.5C130 79.5507 115.449 65 97.5 65C79.5507 65 65 79.5507 65 97.5C65 115.449 79.5507 130 97.5 130Z" fill="#E3B1F0"/>
<path fill-rule="evenodd" clip-rule="evenodd" d="M97.5 106.012C102.201 106.012 106.012 102.201 106.012 97.5C106.012 92.799 102.201 88.9881 97.5 88.9881C92.799 88.9881 88.9881 92.799 88.9881 97.5C88.9881 102.201 92.799 106.012 97.5 106.012ZM97.5 113.75C106.475 113.75 113.75 106.475 113.75 97.5C113.75 88.5254 106.475 81.25 97.5 81.25C88.5254 81.25 81.25 88.5254 81.25 97.5C81.25 106.475 88.5254 113.75 97.5 113.75Z" fill="#FFCAF3"/>
<path fill-rule="evenodd" clip-rule="evenodd" d="M195 65C195 100.899 224.102 130 260 130V65H195ZM234.851 110.655C245.322 110.655 253.81 102.167 253.81 91.6964C253.81 81.226 245.322 72.7381 234.851 72.7381C224.381 72.7381 215.893 81.226 215.893 91.6964C215.893 102.167 224.381 110.655 234.851 110.655Z" fill="#E3B1F0"/>
<rect x="65" y="130" width="65" height="65" fill="#E2C6FF"/>
<rect x="260" y="195" width="65" height="65" fill="#E2C6FF"/>
<path d="M-1.04706e-05 260C35.8985 260 65 230.899 65 195L48.75 195C48.75 221.924 26.9239 243.75 -9.76032e-06 243.75L-1.04706e-05 260Z" fill="#E2C6FF"/>
<path d="M29.4048 195C29.4048 211.24 16.2398 224.405 1.58808e-05 224.405L1.71661e-05 195L29.4048 195Z" fill="#E3B1F0"/>
<path d="M0 130C35.8985 130 65 159.101 65 195L0 195L0 130Z" fill="#E2C6FF"/>
<path d="M260 130C295.899 130 325 159.101 325 195L260 195L260 130Z" fill="#FFCAF3"/>
<path fill-rule="evenodd" clip-rule="evenodd" d="M277.798 168.69C277.798 173.391 281.609 177.202 286.31 177.202C291.011 177.202 294.821 173.391 294.821 168.69C294.821 163.989 291.011 160.179 286.31 160.179C281.609 160.179 277.798 163.989 277.798 168.69ZM270.06 168.69C270.06 177.665 277.335 184.94 286.31 184.94C295.284 184.94 302.56 177.665 302.56 168.69C302.56 159.716 295.284 152.44 286.31 152.44C277.335 152.44 270.06 159.716 270.06 168.69Z" fill="#E3B1F0"/>
<path d="M195 325C195 289.101 224.101 260 260 260V325H195Z" fill="#FFCAF3"/>
<path fill-rule="evenodd" clip-rule="evenodd" d="M233.69 307.202C238.391 307.202 242.202 303.391 242.202 298.69C242.202 293.989 238.391 290.179 233.69 290.179C228.989 290.179 225.179 293.989 225.179 298.69C225.179 303.391 228.989 307.202 233.69 307.202ZM233.69 314.94C242.665 314.94 249.94 307.665 249.94 298.69C249.94 289.716 242.665 282.44 233.69 282.44C224.716 282.44 217.44 289.716 217.44 298.69C217.44 307.665 224.716 314.94 233.69 314.94Z" fill="#E3B1F0"/>
<path fill-rule="evenodd" clip-rule="evenodd" d="M357.5 187.262C371.176 187.262 382.262 176.176 382.262 162.5C382.262 148.824 371.176 137.738 357.5 137.738C343.824 137.738 332.738 148.824 332.738 162.5C332.738 176.176 343.824 187.262 357.5 187.262ZM357.5 195C375.449 195 390 180.449 390 162.5C390 144.551 375.449 130 357.5 130C339.551 130 325 144.551 325 162.5C325 180.449 339.551 195 357.5 195Z" fill="#E3B1F0"/>
<path fill-rule="evenodd" clip-rule="evenodd" d="M357.5 171.012C362.201 171.012 366.012 167.201 366.012 162.5C366.012 157.799 362.201 153.988 357.5 153.988C352.799 153.988 348.988 157.799 348.988 162.5C348.988 167.201 352.799 171.012 357.5 171.012ZM357.5 178.75C366.475 178.75 373.75 171.475 373.75 162.5C373.75 153.525 366.475 146.25 357.5 146.25C348.525 146.25 341.25 153.525 341.25 162.5C341.25 171.475 348.525 178.75 357.5 178.75Z" fill="#FFCAF3"/>
<path fill-rule="evenodd" clip-rule="evenodd" d="M130 195C165.899 195 195 165.898 195 130L130 130L130 195ZM175.655 155.149C175.655 144.678 167.167 136.19 156.696 136.19C146.226 136.19 137.738 144.678 137.738 155.149C137.738 165.619 146.226 174.107 156.696 174.107C167.167 174.107 175.655 165.619 175.655 155.149Z" fill="#E3B1F0"/>
<rect x="130" y="260" width="65" height="65" fill="#E2C6FF"/>
<rect x="195" y="130" width="65" height="65" fill="#E2C6FF"/>
<path d="M-1.33119e-05 260C-1.01735e-05 295.899 29.1015 325 65 325L65 308.75C38.0761 308.75 16.25 286.924 16.25 260L-1.33119e-05 260Z" fill="#FFCAF3"/>
<path d="M65 289.405C48.7602 289.405 35.5952 276.24 35.5952 260L65 260L65 289.405Z" fill="#E3B1F0"/>
<path d="M130 260C94.1015 260 65 230.899 65 195L130 195L130 260Z" fill="#E3B1F0"/>
<path fill-rule="evenodd" clip-rule="evenodd" d="M162.5 252.262C176.176 252.262 187.262 241.176 187.262 227.5C187.262 213.824 176.176 202.738 162.5 202.738C148.824 202.738 137.738 213.824 137.738 227.5C137.738 241.176 148.824 252.262 162.5 252.262ZM162.5 260C180.449 260 195 245.449 195 227.5C195 209.551 180.449 195 162.5 195C144.551 195 130 209.551 130 227.5C130 245.449 144.551 260 162.5 260Z" fill="#E3B1F0"/>
<path fill-rule="evenodd" clip-rule="evenodd" d="M162.5 236.012C167.201 236.012 171.012 232.201 171.012 227.5C171.012 222.799 167.201 218.988 162.5 218.988C157.799 218.988 153.988 222.799 153.988 227.5C153.988 232.201 157.799 236.012 162.5 236.012ZM162.5 243.75C171.475 243.75 178.75 236.475 178.75 227.5C178.75 218.525 171.475 211.25 162.5 211.25C153.525 211.25 146.25 218.525 146.25 227.5C146.25 236.475 153.525 243.75 162.5 243.75Z" fill="#FFCAF3"/>
<path fill-rule="evenodd" clip-rule="evenodd" d="M195 260C230.899 260 260 230.898 260 195L195 195L195 260ZM240.655 220.149C240.655 209.678 232.167 201.19 221.696 201.19C211.226 201.19 202.738 209.678 202.738 220.149C202.738 230.619 211.226 239.107 221.696 239.107C232.167 239.107 240.655 230.619 240.655 220.149Z" fill="#E3B1F0"/>
<path fill-rule="evenodd" clip-rule="evenodd" d="M325 325C360.899 325 390 295.898 390 260L325 260L325 325ZM370.655 285.149C370.655 274.678 362.167 266.19 351.696 266.19C341.226 266.19 332.738 274.678 332.738 285.149C332.738 295.619 341.226 304.107 351.696 304.107C362.167 304.107 370.655 295.619 370.655 285.149Z" fill="#E3B1F0"/>
</svg>
