<svg width="204" height="57" viewBox="0 0 204 57" fill="none" xmlns="http://www.w3.org/2000/svg">
<path fill-rule="evenodd" clip-rule="evenodd" d="M56.2408 0C38.3321 0 23.8142 12.735 23.8142 28.4444C23.8142 35.5875 26.8157 42.1156 31.7729 47.1111H0V56.8889H171.367C189.276 56.8889 203.794 44.1539 203.794 28.4444C203.794 12.735 189.276 0 171.367 0H56.2408ZM171.367 47.1111C183.12 47.1111 192.647 38.7538 192.647 28.4444C192.647 18.1351 183.12 9.77778 171.367 9.77778H56.2408C44.4882 9.77778 34.9608 18.1351 34.9608 28.4444C34.9608 38.7538 44.4882 47.1111 56.2408 47.1111H171.367Z" fill="url(#paint0_linear_14367_4036)" fill-opacity="0.5"/>
<defs>
<linearGradient id="paint0_linear_14367_4036" x1="-30" y1="72" x2="200.5" y2="2" gradientUnits="userSpaceOnUse">
<stop offset="0.00982037" stop-color="white"/>
<stop offset="1" stop-color="#8F00E0"/>
</linearGradient>
</defs>
</svg>
