<svg width="20" height="29" viewBox="0 0 20 29" fill="none" xmlns="http://www.w3.org/2000/svg">
<path d="M5.68815 28.0486C6.18659 28.4624 6.94985 28.4205 7.39295 27.955C7.83604 27.4895 7.79117 26.7768 7.29273 26.363C4.69099 24.2031 2.72171 19.633 2.44738 14.6952C2.17425 9.77899 3.60177 4.89016 7.27084 1.98843C7.77977 1.58594 7.84295 0.874367 7.41195 0.399092C6.98094 -0.0761814 6.21897 -0.135183 5.71004 0.267313C1.24553 3.79814 -0.25882 9.51434 0.0355091 14.812C0.328632 20.088 2.42615 25.3406 5.68815 28.0486Z" fill="url(#paint0_linear_14325_4329)"/>
<path d="M11.4685 25.2767C11.0254 25.7422 10.2621 25.7841 9.76365 25.3703C7.08802 23.1491 5.39719 18.8788 5.16081 14.6242C4.92323 10.3479 6.13439 5.69219 9.78555 2.80463C10.2945 2.40213 11.0564 2.46113 11.4875 2.9364C11.9185 3.41167 11.8553 4.12325 11.3463 4.52575C8.49064 6.78422 7.3563 10.6125 7.57268 14.5073C7.79027 18.4238 9.35287 22.0116 11.3682 23.6847C11.8667 24.0985 11.9115 24.8113 11.4685 25.2767Z" fill="url(#paint1_linear_14325_4329)"/>
<path d="M13.8312 22.6854C14.3257 23.1033 15.0893 23.0677 15.5368 22.6059C15.9843 22.1441 15.9462 21.431 15.4517 21.0131C14.0186 19.8019 12.8593 17.1413 12.698 14.1859C12.5379 11.251 13.3826 8.42304 15.4299 6.77468C15.9351 6.36801 15.9915 5.65594 15.556 5.18423C15.1206 4.71252 14.3581 4.65981 13.853 5.06648C11.0202 7.34718 10.1057 10.9968 10.2861 14.3007C10.4652 17.584 11.7461 20.9232 13.8312 22.6854Z" fill="url(#paint2_linear_14325_4329)"/>
<path d="M17.983 20.0078C18.4779 20.4253 19.2415 20.389 19.6886 19.9269C20.1356 19.4647 20.0968 18.7516 19.6018 18.3341C18.7585 17.6227 18.0083 15.9712 17.9041 14.0653C17.801 12.1801 18.3506 10.4415 19.58 9.45366C20.0856 9.04743 20.1428 8.33542 19.7078 7.86332C19.2728 7.39123 18.5103 7.33783 18.0048 7.74405C15.9889 9.36394 15.3687 11.9248 15.4921 14.1803C15.6143 16.4152 16.4867 18.7458 17.983 20.0078Z" fill="url(#paint3_linear_14325_4329)"/>
<defs>
<linearGradient id="paint0_linear_14325_4329" x1="29" y1="11.3335" x2="-6" y2="14.3335" gradientUnits="userSpaceOnUse">
<stop stop-color="#FFFCF1" stop-opacity="0"/>
<stop offset="1" stop-color="#FFFCF1"/>
</linearGradient>
<linearGradient id="paint1_linear_14325_4329" x1="29" y1="11.3335" x2="-6" y2="14.3335" gradientUnits="userSpaceOnUse">
<stop stop-color="#FFFCF1" stop-opacity="0"/>
<stop offset="1" stop-color="#FFFCF1"/>
</linearGradient>
<linearGradient id="paint2_linear_14325_4329" x1="29" y1="11.3335" x2="-6" y2="14.3335" gradientUnits="userSpaceOnUse">
<stop stop-color="#FFFCF1" stop-opacity="0"/>
<stop offset="1" stop-color="#FFFCF1"/>
</linearGradient>
<linearGradient id="paint3_linear_14325_4329" x1="29" y1="11.3335" x2="-6" y2="14.3335" gradientUnits="userSpaceOnUse">
<stop stop-color="#FFFCF1" stop-opacity="0"/>
<stop offset="1" stop-color="#FFFCF1"/>
</linearGradient>
</defs>
</svg>
