<svg width="218" height="200" viewBox="0 0 218 200" fill="none" xmlns="http://www.w3.org/2000/svg">
<mask id="mask0_14266_18285" style="mask-type:alpha" maskUnits="userSpaceOnUse" x="-40" y="0" width="258" height="220">
<rect x="-40" width="257.389" height="219.91" fill="#F6CFCA"/>
</mask>
<g mask="url(#mask0_14266_18285)">
<g opacity="0.2">
<path fill-rule="evenodd" clip-rule="evenodd" d="M26.2738 77.9277C13.0099 77.8976 2.23332 88.9669 2.20358 102.652C2.17383 116.337 12.9022 127.455 26.1661 127.485C39.4299 127.515 50.2065 116.446 50.2362 102.761C50.266 89.076 39.5376 77.9579 26.2738 77.9277ZM26.2906 70.1844C8.88178 70.1449 -5.26249 84.6734 -5.30152 102.635C-5.34056 120.596 8.74042 135.189 26.1492 135.228C43.558 135.268 57.7023 120.739 57.7413 102.778C57.7804 84.8166 43.6994 70.224 26.2906 70.1844Z" fill="white"/>
<path fill-rule="evenodd" clip-rule="evenodd" d="M26.2406 94.189C21.6812 94.1787 17.9767 97.9838 17.9665 102.688C17.9563 107.392 21.6442 111.214 26.2036 111.224C30.7631 111.235 34.4675 107.43 34.4777 102.725C34.488 98.0213 30.8001 94.1994 26.2406 94.189ZM26.2575 86.4457C17.5531 86.426 10.4809 93.6902 10.4614 102.671C10.4419 111.652 17.4824 118.948 26.1868 118.968C34.8912 118.987 41.9633 111.723 41.9829 102.742C42.0024 93.7618 34.9619 86.4655 26.2575 86.4457Z" fill="white"/>
<path fill-rule="evenodd" clip-rule="evenodd" d="M57.6707 135.3C22.8531 135.221 -5.4355 164.278 -5.51357 200.2L57.5293 200.344L57.6707 135.3ZM13.3039 175.077C13.2811 185.555 21.495 194.067 31.6501 194.09C41.8053 194.113 50.0561 185.638 50.0789 175.161C50.1017 164.683 41.8877 156.171 31.7326 156.148C21.5775 156.125 13.3266 164.6 13.3039 175.077Z" fill="white"/>
<path d="M57.6722 135.301C92.4898 135.38 120.778 106.323 120.856 70.4004L105.096 70.3646C105.037 97.3066 83.8208 119.099 57.7076 119.04L57.6722 135.301Z" fill="white"/>
<path d="M86.3335 70.3232C86.2982 86.574 73.501 99.7188 57.7502 99.683L57.8141 70.2585L86.3335 70.3232Z" fill="white"/>
<path d="M120.58 200.487C85.7625 200.408 57.6005 171.223 57.6786 135.3L120.721 135.443L120.58 200.487Z" fill="#E0D2FF"/>
<path d="M20.3013 55.5713C16.6953 55.5632 13.7783 52.657 13.7861 49.0803C13.7938 45.5036 16.7234 42.6107 20.3295 42.6189C23.9356 42.6271 26.8526 45.5333 26.8448 49.11C26.837 52.6867 23.9074 55.5795 20.3013 55.5713Z" fill="white"/>
<path fill-rule="evenodd" clip-rule="evenodd" d="M49.9504 69.1802C50.0098 41.8671 27.7346 19.6748 0.197282 19.6123L0.0897961 69.0669L49.9504 69.1802ZM20.2886 61.4588C13.4042 61.4432 7.83542 55.8951 7.85026 49.0668C7.8651 42.2386 13.458 36.7158 20.3423 36.7315C27.2266 36.7471 32.7954 42.2952 32.7806 49.1235C32.7657 55.9517 27.1729 61.4744 20.2886 61.4588Z" fill="white"/>
<path fill-rule="evenodd" clip-rule="evenodd" d="M183.619 200.63C183.697 164.708 155.535 135.522 120.717 135.443L120.576 200.487L183.619 200.63ZM145.067 154.857C134.912 154.834 126.661 163.309 126.638 173.786C126.615 184.264 134.829 192.776 144.984 192.799C155.14 192.822 163.39 184.347 163.413 173.87C163.436 163.392 155.222 154.88 145.067 154.857Z" fill="white"/>
</g>
</g>
</svg>
